<?xml version="1.0" encoding="UTF-8" standalone="no" ?>
<!DOCTYPE svg PUBLIC "-//W3C//DTD SVG 1.1//EN" "http://www.w3.org/Graphics/SVG/1.1/DTD/svg11.dtd">
<svg xmlns="http://www.w3.org/2000/svg" xmlns:xlink="http://www.w3.org/1999/xlink" version="1.1" width="1080" height="1080" viewBox="0 0 1080 1080" xml:space="preserve">
<desc>Created with Fabric.js 5.2.4</desc>
<defs>
</defs>
<g transform="matrix(1 0 0 1 540 540)" id="112d6098-eff1-458a-9194-dc2695f2274d"  >
<rect style="stroke: none; stroke-width: 1; stroke-dasharray: none; stroke-linecap: butt; stroke-dashoffset: 0; stroke-linejoin: miter; stroke-miterlimit: 4; fill: rgb(255,255,255); fill-rule: nonzero; opacity: 1; visibility: hidden;" vector-effect="non-scaling-stroke"  x="-540" y="-540" rx="0" ry="0" width="1080" height="1080" />
</g>
<g transform="matrix(1 0 0 1 540 540)" id="389b696a-3cf1-455e-b6cb-676ee350422c"  >
</g>
<g transform="matrix(71.61 0 0 71.61 540 540)" id="45e39374-2d1b-4124-97ef-1bdaed2b8a2c"  >
<path style="stroke: rgb(255,255,255); stroke-width: 0; stroke-dasharray: none; stroke-linecap: butt; stroke-dashoffset: 0; stroke-linejoin: miter; stroke-miterlimit: 4; fill: rgb(255,255,255); fill-rule: nonzero; opacity: 1;" vector-effect="non-scaling-stroke"  transform=" translate(-8, -7.25)" d="M 5 11.5 C 5 11.223857625084603 5.223857625084603 11 5.5 11 L 14.5 11 C 14.776142374915397 11 15 11.223857625084603 15 11.5 C 15 11.776142374915397 14.776142374915397 12 14.5 12 L 5.5 12 C 5.223857625084603 12 5 11.776142374915397 5 11.5 M 5 7.5 C 5 7.223857625084603 5.223857625084603 7 5.5 7 L 14.5 7 C 14.776142374915397 7 15 7.223857625084603 15 7.5 C 15 7.776142374915397 14.776142374915397 8 14.5 8 L 5.5 8 C 5.223857625084603 8 5 7.776142374915397 5 7.5 M 5 3.5 C 5 3.2238576250846034 5.223857625084603 3 5.5 3 L 14.5 3 C 14.776142374915397 3 15 3.2238576250846034 15 3.5 C 15 3.7761423749153966 14.776142374915397 4 14.5 4 L 5.5 4 C 5.223857625084603 4 5 3.7761423749153966 5 3.5 M 3.854 2.146 C 3.948041700687635 2.239804263010167 4.000893783685418 2.3671727391417585 4.000893783685418 2.5 C 4.000893783685418 2.632827260858241 3.948041700687635 2.760195736989833 3.854 2.854 L 2.354 4.354 C 2.260195736989833 4.448041700687635 2.1328272608582415 4.500893783685418 2 4.500893783685418 C 1.867172739141759 4.500893783685418 1.739804263010167 4.448041700687635 1.6460000000000001 4.354 L 1.1460000000000001 3.854 C 0.9504911985598992 3.6584911985598993 0.950491198559899 3.341508801440101 1.146 3.146 C 1.3415088014401009 2.9504911985598987 1.6584911985598991 2.950491198559899 1.854 3.146 L 2 3.293 L 3.146 2.146 C 3.239804263010167 2.051958299312365 3.3671727391417585 1.9991062163145812 3.5 1.9991062163145812 C 3.6328272608582415 1.9991062163145812 3.760195736989833 2.051958299312365 3.854 2.146 M 3.854 6.146 C 3.948041700687635 6.239804263010167 4.000893783685418 6.3671727391417585 4.000893783685418 6.5 C 4.000893783685418 6.6328272608582415 3.948041700687635 6.760195736989833 3.854 6.854 L 2.354 8.354 C 2.260195736989833 8.448041700687634 2.1328272608582415 8.500893783685418 2 8.500893783685418 C 1.867172739141759 8.500893783685418 1.739804263010167 8.448041700687634 1.6460000000000001 8.354 L 1.1460000000000001 7.853999999999999 C 0.9504911985598992 7.658491198559898 0.950491198559899 7.3415088014401 1.146 7.145999999999999 C 1.3415088014401009 6.950491198559898 1.6584911985598991 6.950491198559898 1.854 7.145999999999999 L 2 7.293 L 3.146 6.146 C 3.239804263010167 6.051958299312365 3.3671727391417585 5.999106216314582 3.5 5.999106216314582 C 3.6328272608582415 5.999106216314582 3.760195736989833 6.051958299312365 3.854 6.146 M 3.854 10.146 C 3.948041700687635 10.239804263010168 4.000893783685418 10.36717273914176 4.000893783685418 10.5 C 4.000893783685418 10.632827260858242 3.948041700687635 10.760195736989834 3.854 10.854000000000001 L 2.354 12.354000000000001 C 2.260195736989833 12.448041700687636 2.1328272608582415 12.50089378368542 2 12.50089378368542 C 1.867172739141759 12.50089378368542 1.739804263010167 12.448041700687636 1.6460000000000001 12.354000000000001 L 1.1460000000000001 11.854000000000001 C 0.9504911985598992 11.6584911985599 0.950491198559899 11.341508801440101 1.146 11.146 C 1.3415088014401009 10.9504911985599 1.6584911985598991 10.9504911985599 1.854 11.146 L 2 11.293000000000001 L 3.146 10.146 C 3.239804263010167 10.051958299312366 3.3671727391417585 9.999106216314582 3.5 9.999106216314582 C 3.6328272608582415 9.999106216314582 3.760195736989833 10.051958299312366 3.854 10.146" stroke-linecap="round" />
</g>
</svg>